<?xml version="1.0" encoding="UTF-8"?>
<svg width="152pt" version="1.1" xmlns="http://www.w3.org/2000/svg" height="34pt" viewBox="0 0 152 34" xmlns:xlink="http://www.w3.org/1999/xlink">
 <defs>
  <clipPath id="Clip0">
   <path d="M0 0 L0 33.248 L151.299 33.248 L151.299 0 L0 0 Z" transform="translate(0, 0.751953)"/>
  </clipPath>
 </defs>
 <g id="Background">
  <g id="Group1" clip-path="url(#Clip0)">
   <path style="fill:#ffffff; fill-rule:evenodd;stroke:none;" d="M0 3.6777 L1.5517 0 L15.8496 20.959 C14.1416 21.4941 11.2793 20.708 8.1377 19.4834 L0 3.6777 Z" transform="translate(40.2598, 11.4131)"/>
   <path style="fill:#ffffff; fill-rule:evenodd;stroke:none;" d="M0 4.89455 L2.0645 0 L13.7862 22.7637 C12.4121 22.1954 11.0215 21.5732 9.625 20.9414 C8.0977 20.25 6.7393 19.6708 5.2412 19.1455 L0 4.89455 Z" transform="translate(33.4531, 7.66895)"/>
   <path style="fill:#ffffff; fill-rule:evenodd;stroke:none;" d="M21.8652 17.6055 C23.4121 15.5567 24.625 13.2852 25.4795 10.7735 C25.8584 12.5645 26.2011 14.2803 26.581 16.0713 C25.5947 16.0918 23.8486 16.7696 21.8652 17.6055 Z M25.8808 0 C21.3349 11.461 13 27.4785 3.70215 29.0352 C2.37988 29.2569 1.48242 27.625 3.23144 27.8477 C3.07519 26.4346 0.70312 26.0616 0.37793 27.9248 C0 30.0899 2.50293 30.0069 3.70215 29.7285 C11.8769 27.8311 19.2968 21.1641 27.3916 20.4463 L27.83 22.8614 C29.791 22.5869 32.1464 23.0225 34.6445 23.8311 L25.8808 0 Z" transform="translate(3.05176, 2.64453)"/>
   <path style="fill:#ffffff; fill-rule:evenodd;stroke:none;" d="M3.6729 0 C5.9795 0 7.8496 1.8564 7.8496 4.1464 C7.8496 6.2734 6.2363 8.0253 4.1572 8.2646 L0 2.1689 C0.707 0.8769 2.0869 0 3.6729 0 " transform="translate(46.2119, 14.2354)"/>
   <path style="fill:#ffffff; fill-rule:nonzero;stroke:none;" d="M2.2393 1.23242 L1.7178 2.43552 L2.7549 2.43552 L2.2393 1.23242 Z M3.4903 4.14262 L3.1045 3.24802 L1.3682 3.24802 L0.9834 4.14262 L0 4.14262 L1.7891 0 L2.6836 0 L4.4737 4.14262 L3.4903 4.14262 Z" transform="translate(56.1201, 9.40918)"/>
   <path style="fill:#ffffff; fill-rule:nonzero;stroke:none;" d="M0 4.14262 L0 0 L0.9248 0 L0.9248 3.31932 L2.6904 3.31932 L2.6904 4.14262 L0 4.14262 Z" transform="translate(61.6895, 9.40918)"/>
   <path style="fill:#ffffff; fill-rule:nonzero;stroke:none;" d="M2.1748 2.00002 C2.2851 1.87602 2.3408 1.69432 2.3408 1.45512 C2.3408 1.21582 2.2685 1.04592 2.124 0.94532 C1.9804 0.84472 1.7558 0.79392 1.4521 0.79392 L0.9248 0.79392 L0.9248 2.18652 L1.5469 2.18652 C1.8545 2.18652 2.0644 2.12502 2.1748 2.00002 Z M2.8535 0.37109 C3.1435 0.61722 3.289 0.99712 3.289 1.50882 C3.289 2.02052 3.1396 2.39452 2.8418 2.63082 C2.5429 2.86812 2.0879 2.98732 1.4756 2.98732 L0.9248 2.98732 L0.9248 4.14262 L0 4.14262 L0 0 L1.4638 0 C2.0996 0 2.5625 0.12402 2.8535 0.37109 Z" transform="translate(65.6719, 9.40918)"/>
   <path style="fill:#ffffff; fill-rule:nonzero;stroke:none;" d="M2.9863 0 L2.9863 0.82422 L0.9248 0.82422 L0.9248 1.67772 L2.7793 1.67772 L2.7793 2.46582 L0.9248 2.46582 L0.9248 3.32522 L3.0518 3.32522 L3.0518 4.14262 L0 4.14262 L0 0 L2.9863 0 Z" transform="translate(70.2998, 9.40918)"/>
   <path style="fill:#ffffff; fill-rule:nonzero;stroke:none;" d="M2.8975 0 L3.8223 0 L3.8223 4.14262 L2.8975 4.14262 L0.9238 1.54692 L0.9238 4.14262 L0 4.14262 L0 0 L0.8652 0 L2.8975 2.66702 L2.8975 0 Z" transform="translate(74.792, 9.40918)"/>
   <path style="fill:#ffffff; fill-rule:nonzero;stroke:none;" d="M0 0 L0.9248 0 L0.9248 1.70122 L2.4893 0 L3.6328 0 L1.9854 1.83102 C2.128 2.02932 2.3906 2.39742 2.7735 2.93652 C3.1573 3.47562 3.4434 3.87792 3.6328 4.14262 L2.5547 4.14262 L1.3399 2.50682 L0.9248 2.96872 L0.9248 4.14262 L0 4.14262 L0 0 Z" transform="translate(80.249, 9.40918)"/>
   <path style="fill:#ffffff; fill-rule:nonzero;stroke:none;" d="M3.4073 2.14255 C3.4073 1.77345 3.2891 1.45805 3.0518 1.19725 C2.8145 0.93655 2.5235 0.80565 2.1778 0.80565 C1.8321 0.80565 1.5411 0.93655 1.3038 1.19725 C1.0665 1.45805 0.9473 1.77345 0.9473 2.14255 C0.9473 2.51175 1.0665 2.82615 1.3038 3.08495 C1.5411 3.34375 1.8321 3.47265 2.1778 3.47265 C2.5235 3.47265 2.8145 3.34375 3.0518 3.08495 C3.2891 2.82615 3.4073 2.51175 3.4073 2.14255 Z M3.7217 3.66505 C3.3018 4.07425 2.7872 4.27835 2.1749 4.27835 C1.5625 4.27835 1.0469 4.07425 0.628 3.66505 C0.209 3.25685 0 2.74805 0 2.13965 C0 1.53125 0.209 1.02245 0.628 0.61328 C1.0469 0.2041 1.5625 0 2.1749 0 C2.7872 0 3.3018 0.2041 3.7217 0.61328 C4.1397 1.02245 4.3497 1.53125 4.3497 2.13965 C4.3497 2.74805 4.1397 3.25685 3.7217 3.66505 Z" transform="translate(84.623, 9.31445)"/>
   <path style="fill:#ffffff; fill-rule:nonzero;stroke:none;" d="M2.8975 0 L3.8213 0 L3.8213 4.14262 L2.8975 4.14262 L0.9238 1.54692 L0.9238 4.14262 L0 4.14262 L0 0 L0.8652 0 L2.8975 2.66702 L2.8975 0 Z" transform="translate(90.3711, 9.40918)"/>
   <path style="fill:#ffffff; fill-rule:nonzero;stroke:none;" d="M2.0566 2.63772 L3.1113 0 L4.1133 0 L2.4482 4.14262 L1.665 4.14262 L0 0 L1.0019 0 L2.0566 2.63772 Z" transform="translate(95.3008, 9.40918)"/>
   <path style="fill:#ffffff; fill-rule:nonzero;stroke:none;" d="M2.987 0 L2.987 0.82422 L0.924 0.82422 L0.924 1.67772 L2.779 1.67772 L2.779 2.46582 L0.924 2.46582 L0.924 3.32522 L3.052 3.32522 L3.052 4.14262 L0 4.14262 L0 0 L2.987 0 Z" transform="translate(100.522, 9.40918)"/>
   <path style="fill:#ffffff; fill-rule:nonzero;stroke:none;" d="M2.897 0 L3.822 0 L3.822 4.14262 L2.897 4.14262 L0.924 1.54692 L0.924 4.14262 L0 4.14262 L0 0 L0.865 0 L2.897 2.66702 L2.897 0 Z" transform="translate(105.014, 9.40918)"/>
   <path style="fill:#ffffff; fill-rule:nonzero;stroke:none;" d="M2.098 0.80082 L2.098 4.14262 L1.174 4.14262 L1.174 0.80082 L0 0.80082 L0 0 L3.272 0 L3.272 0.80082 L2.098 0.80082 Z" transform="translate(110.127, 9.40918)"/>
   <path style="fill:#ffffff; fill-rule:nonzero;stroke:none;" d="M0 0 L0.925 0 L0.925 4.14262 L0 4.14262 L0 0 Z" transform="translate(114.69, 9.40918)"/>
   <path style="fill:#ffffff; fill-rule:nonzero;stroke:none;" d="M3.408 2.14255 C3.408 1.77345 3.289 1.45805 3.052 1.19725 C2.815 0.93655 2.523 0.80565 2.178 0.80565 C1.833 0.80565 1.541 0.93655 1.304 1.19725 C1.067 1.45805 0.948 1.77345 0.948 2.14255 C0.948 2.51175 1.067 2.82615 1.304 3.08495 C1.541 3.34375 1.833 3.47265 2.178 3.47265 C2.523 3.47265 2.815 3.34375 3.052 3.08495 C3.289 2.82615 3.408 2.51175 3.408 2.14255 Z M3.722 3.66505 C3.303 4.07425 2.787 4.27835 2.175 4.27835 C1.563 4.27835 1.047 4.07425 0.628 3.66505 C0.209 3.25685 0 2.74805 0 2.13965 C0 1.53125 0.209 1.02245 0.628 0.61328 C1.047 0.2041 1.563 0 2.175 0 C2.787 0 3.303 0.2041 3.722 0.61328 C4.141 1.02245 4.35 1.53125 4.35 2.13965 C4.35 2.74805 4.141 3.25685 3.722 3.66505 Z" transform="translate(117.013, 9.31445)"/>
   <path style="fill:#ffffff; fill-rule:nonzero;stroke:none;" d="M2.898 0 L3.822 0 L3.822 4.14262 L2.898 4.14262 L0.924 1.54692 L0.924 4.14262 L0 4.14262 L0 0 L0.865 0 L2.898 2.66702 L2.898 0 Z" transform="translate(122.761, 9.40918)"/>
   <path style="fill:#ffffff; fill-rule:nonzero;stroke:none;" d="M2.1513 3.419 C2.6054 3.419 2.9775 3.2393 3.2656 2.8799 L3.8584 3.4902 C3.3877 4.0195 2.834 4.2842 2.1963 4.2842 C1.5576 4.2842 1.0322 4.083 0.6201 3.6797 C0.207 3.2764 0 2.7676 0 2.1533 C0 1.5391 0.2109 1.0274 0.6318 0.6162 C1.0527 0.2051 1.5664 0 2.1748 0 C2.8545 0 3.4238 0.2588 3.8818 0.7764 L3.3066 1.4277 C3.0146 1.0645 2.6513 0.8828 2.2168 0.8828 C1.8691 0.8828 1.5713 0.9961 1.3252 1.2236 C1.0781 1.4502 0.9541 1.7568 0.9541 2.1416 C0.9541 2.5274 1.0713 2.8359 1.3037 3.0693 C1.5371 3.3027 1.8193 3.419 2.1513 3.419 Z" transform="translate(66.2305, 26.6787)"/>
   <path style="fill:#ffffff; fill-rule:nonzero;stroke:none;" d="M3.4072 2.1416 C3.4072 1.7725 3.289 1.457 3.0517 1.1963 C2.8144 0.9356 2.5234 0.8057 2.1777 0.8057 C1.832 0.8057 1.541 0.9356 1.3037 1.1963 C1.0664 1.457 0.9482 1.7725 0.9482 2.1416 C0.9482 2.5117 1.0664 2.8252 1.3037 3.084 C1.541 3.3428 1.832 3.4727 2.1777 3.4727 C2.5234 3.4727 2.8144 3.3428 3.0517 3.084 C3.289 2.8252 3.4072 2.5117 3.4072 2.1416 Z M3.7216 3.6651 C3.3027 4.0733 2.7871 4.2783 2.1748 4.2783 C1.5625 4.2783 1.0468 4.0733 0.6279 3.6651 C0.2089 3.2559 0 2.7471 0 2.1387 C0 1.5303 0.2089 1.0215 0.6279 0.6133 C1.0468 0.2041 1.5625 0 2.1748 0 C2.7871 0 3.3027 0.2041 3.7216 0.6133 C4.1396 1.0215 4.3496 1.5303 4.3496 2.1387 C4.3496 2.7471 4.1396 3.2559 3.7216 3.6651 Z" transform="translate(70.6104, 26.6787)"/>
   <path style="fill:#ffffff; fill-rule:nonzero;stroke:none;" d="M2.8984 0 L3.8222 0 L3.8222 4.1416 L2.8984 4.1416 L0.9248 1.5469 L0.9248 4.1416 L0 4.1416 L0 0 L0.8652 0 L2.8984 2.6661 L2.8984 0 Z" transform="translate(75.8604, 26.7734)"/>
   <path style="fill:#ffffff; fill-rule:nonzero;stroke:none;" d="M2.0566 2.6368 L3.1113 0 L4.1123 0 L2.4472 4.1416 L1.665 4.1416 L0 0 L1.0019 0 L2.0566 2.6368 Z" transform="translate(80.293, 26.7734)"/>
   <path style="fill:#ffffff; fill-rule:nonzero;stroke:none;" d="M2.9873 0 L2.9873 0.8233 L0.9248 0.8233 L0.9248 1.6768 L2.7803 1.6768 L2.7803 2.4649 L0.9248 2.4649 L0.9248 3.3243 L3.0528 3.3243 L3.0528 4.1416 L0 4.1416 L0 0 L2.9873 0 Z" transform="translate(85.0156, 26.7734)"/>
   <path style="fill:#ffffff; fill-rule:nonzero;stroke:none;" d="M2.8974 0 L3.8222 0 L3.8222 4.1416 L2.8974 4.1416 L0.9248 1.5469 L0.9248 4.1416 L0 4.1416 L0 0 L0.8652 0 L2.8974 2.6661 L2.8974 0 Z" transform="translate(89.0098, 26.7734)"/>
   <path style="fill:#ffffff; fill-rule:nonzero;stroke:none;" d="M0 4.1416 L0 3.5079 L2.169 0.7998 L0.0713 0.7998 L0.0713 0 L3.4317 0 L3.4317 0.6397 L1.2686 3.336 L3.4668 3.336 L3.4668 4.1416 L0 4.1416 Z" transform="translate(93.7324, 26.7734)"/>
   <path style="fill:#ffffff; fill-rule:nonzero;stroke:none;" d="M0 0 L0.9239 0 L0.9239 4.1416 L0 4.1416 L0 0 Z" transform="translate(98.124, 26.7734)"/>
   <path style="fill:#ffffff; fill-rule:nonzero;stroke:none;" d="M3.408 2.1416 C3.408 1.7725 3.289 1.457 3.052 1.1963 C2.815 0.9356 2.524 0.8057 2.178 0.8057 C1.832 0.8057 1.541 0.9356 1.304 1.1963 C1.067 1.457 0.948 1.7725 0.948 2.1416 C0.948 2.5117 1.067 2.8252 1.304 3.084 C1.541 3.3428 1.832 3.4727 2.178 3.4727 C2.524 3.4727 2.815 3.3428 3.052 3.084 C3.289 2.8252 3.408 2.5117 3.408 2.1416 Z M3.722 3.6651 C3.303 4.0733 2.787 4.2783 2.175 4.2783 C1.563 4.2783 1.047 4.0733 0.629 3.6651 C0.21 3.2559 0 2.7471 0 2.1387 C0 1.5303 0.21 1.0215 0.629 0.6133 C1.047 0.2041 1.563 0 2.175 0 C2.787 0 3.303 0.2041 3.722 0.6133 C4.14 1.0215 4.35 1.5303 4.35 2.1387 C4.35 2.7471 4.14 3.2559 3.722 3.6651 Z" transform="translate(100.008, 26.6787)"/>
   <path style="fill:#ffffff; fill-rule:nonzero;stroke:none;" d="M2.897 0 L3.821 0 L3.821 4.1416 L2.897 4.1416 L0.924 1.5469 L0.924 4.1416 L0 4.1416 L0 0 L0.865 0 L2.897 2.6661 L2.897 0 Z" transform="translate(105.318, 26.7734)"/>
   <path style="fill:#ffffff; fill-rule:nonzero;stroke:none;" d="M2.987 0 L2.987 0.8233 L0.925 0.8233 L0.925 1.6768 L2.78 1.6768 L2.78 2.4649 L0.925 2.4649 L0.925 3.3243 L3.052 3.3243 L3.052 4.1416 L0 4.1416 L0 0 L2.987 0 Z" transform="translate(110.307, 26.7734)"/>
   <path style="fill:#ffffff; fill-rule:nonzero;stroke:none;" d="M2.486 3.0039 C2.713 2.7911 2.827 2.4805 2.827 2.0743 C2.827 1.667 2.713 1.3536 2.486 1.1348 C2.259 0.9151 1.91 0.8057 1.44 0.8057 L0.925 0.8057 L0.925 3.3243 L1.512 3.3243 C1.934 3.3243 2.259 3.2178 2.486 3.0039 Z M3.165 0.542 C3.56 0.9034 3.757 1.4063 3.757 2.0498 C3.757 2.6944 3.565 3.2041 3.179 3.5791 C2.794 3.9541 2.206 4.1416 1.417 4.1416 L0 4.1416 L0 0 L1.464 0 C2.202 0 2.769 0.1807 3.165 0.542 Z" transform="translate(116.043, 26.7734)"/>
   <path style="fill:#ffffff; fill-rule:nonzero;stroke:none;" d="M2.986 0 L2.986 0.8233 L0.924 0.8233 L0.924 1.6768 L2.779 1.6768 L2.779 2.4649 L0.924 2.4649 L0.924 3.3243 L3.051 3.3243 L3.051 4.1416 L0 4.1416 L0 0 L2.986 0 Z" transform="translate(120.512, 26.7734)"/>
   <path style="fill:#ffffff; fill-rule:nonzero;stroke:none;" d="M0 4.1416 L0 0 L0.924 0 L0.924 3.3184 L2.69 3.3184 L2.69 4.1416 L0 4.1416 Z" transform="translate(124.298, 26.7734)"/>
   <path style="fill:#ffffff; fill-rule:nonzero;stroke:none;" d="M0 4.1416 L0 0 L0.924 0 L0.924 3.3184 L2.69 3.3184 L2.69 4.1416 L0 4.1416 Z" transform="translate(127.575, 26.7734)"/>
   <path style="fill:#ffffff; fill-rule:nonzero;stroke:none;" d="M2.986 0 L2.986 0.8233 L0.924 0.8233 L0.924 1.6768 L2.779 1.6768 L2.779 2.4649 L0.924 2.4649 L0.924 3.3243 L3.052 3.3243 L3.052 4.1416 L0 4.1416 L0 0 L2.986 0 Z" transform="translate(130.852, 26.7734)"/>
   <path style="fill:#ffffff; fill-rule:nonzero;stroke:none;" d="M2.239 1.2325 L1.718 2.4356 L2.755 2.4356 L2.239 1.2325 Z M3.49 4.1416 L3.105 3.2471 L1.369 3.2471 L0.983 4.1416 L0 4.1416 L1.789 0 L2.684 0 L4.474 4.1416 L3.49 4.1416 Z" transform="translate(135.575, 26.7734)"/>
   <path style="fill:#ffffff; fill-rule:nonzero;stroke:none;" d="M0 4.1416 L0 0 L0.924 0 L0.924 3.3184 L2.69 3.3184 L2.69 4.1416 L0 4.1416 Z" transform="translate(140.44, 26.7734)"/>
   <path style="fill:#ffffff; fill-rule:nonzero;stroke:none;" d="M2.174 2 C2.285 1.875 2.34 1.6934 2.34 1.4541 C2.34 1.2159 2.268 1.0459 2.124 0.9454 C1.98 0.8438 1.755 0.794 1.451 0.794 L0.924 0.794 L0.924 2.1866 L1.546 2.1866 C1.854 2.1866 2.064 2.1241 2.174 2 Z M2.853 0.3702 C3.143 0.6172 3.288 0.9961 3.288 1.5079 C3.288 2.0196 3.139 2.3936 2.841 2.6309 C2.543 2.8682 2.088 2.9864 1.475 2.9864 L0.924 2.9864 L0.924 4.1416 L0 4.1416 L0 0 L1.463 0 C2.099 0 2.562 0.1231 2.853 0.3702 Z" transform="translate(143.717, 26.7734)"/>
   <path style="fill:#ffffff; fill-rule:nonzero;stroke:none;" d="M0 0 L0.925 0 L0.925 4.1416 L0 4.1416 L0 0 Z" transform="translate(147.639, 26.7734)"/>
   <path style="fill:#ffffff; fill-rule:nonzero;stroke:none;" d="M2.1504 3.419 C2.6045 3.419 2.9766 3.2393 3.2647 2.8799 L3.8575 3.4903 C3.3868 4.0196 2.833 4.2842 2.1953 4.2842 C1.5567 4.2842 1.0313 4.083 0.6192 3.6797 C0.2061 3.2774 0 2.7686 0 2.1543 C0 1.5401 0.21 1.0274 0.6309 0.6162 C1.0518 0.2051 1.5655 0 2.1748 0 C2.8535 0 3.4229 0.2588 3.8809 0.7764 L3.3067 1.4278 C3.0137 1.0645 2.6504 0.8828 2.2159 0.8828 C1.8682 0.8828 1.5713 0.9961 1.3243 1.2237 C1.0772 1.4512 0.9532 1.7569 0.9532 2.1426 C0.9532 2.5274 1.0703 2.8369 1.3028 3.0694 C1.5362 3.3028 1.8194 3.419 2.1504 3.419 Z" transform="translate(58.582, 15.0527)"/>
   <path style="fill:#ffffff; fill-rule:nonzero;stroke:none;" d="M3.4072 2.1426 C3.4072 1.7725 3.2891 1.458 3.0518 1.1973 C2.8144 0.9366 2.5234 0.8057 2.1777 0.8057 C1.832 0.8057 1.541 0.9366 1.3037 1.1973 C1.0664 1.458 0.9482 1.7725 0.9482 2.1426 C0.9482 2.5118 1.0664 2.8262 1.3037 3.084 C1.541 3.3428 1.832 3.4727 2.1777 3.4727 C2.5234 3.4727 2.8144 3.3428 3.0518 3.084 C3.2891 2.8262 3.4072 2.5118 3.4072 2.1426 Z M3.7217 3.6651 C3.3027 4.0743 2.7871 4.2784 2.1748 4.2784 C1.5625 4.2784 1.0469 4.0743 0.6279 3.6651 C0.209 3.2559 0 2.7481 0 2.1397 C0 1.5313 0.209 1.0225 0.6279 0.6133 C1.0469 0.2041 1.5625 0 2.1748 0 C2.7871 0 3.3027 0.2041 3.7217 0.6133 C4.1396 1.0225 4.3496 1.5313 4.3496 2.1397 C4.3496 2.7481 4.1396 3.2559 3.7217 3.6651 Z" transform="translate(63.3877, 15.0527)"/>
   <path style="fill:#ffffff; fill-rule:nonzero;stroke:none;" d="M2.8984 0 L3.8222 0 L3.8222 4.1425 L2.8984 4.1425 L0.9248 1.5468 L0.9248 4.1425 L0 4.1425 L0 0 L0.8652 0 L2.8984 2.667 L2.8984 0 Z" transform="translate(69.0645, 15.1475)"/>
   <path style="fill:#ffffff; fill-rule:nonzero;stroke:none;" d="M2.0567 2.6367 L3.1114 0 L4.1123 0 L2.4473 4.1425 L1.6651 4.1425 L0 0 L1.002 0 L2.0567 2.6367 Z" transform="translate(73.9238, 15.1475)"/>
   <path style="fill:#ffffff; fill-rule:nonzero;stroke:none;" d="M2.9864 0 L2.9864 0.8242 L0.9248 0.8242 L0.9248 1.6767 L2.7793 1.6767 L2.7793 2.4648 L0.9248 2.4648 L0.9248 3.3242 L3.0518 3.3242 L3.0518 4.1425 L0 4.1425 L0 0 L2.9864 0 Z" transform="translate(79.0732, 15.1475)"/>
   <path style="fill:#ffffff; fill-rule:nonzero;stroke:none;" d="M2.8975 0 L3.8223 0 L3.8223 4.1425 L2.8975 4.1425 L0.9239 1.5468 L0.9239 4.1425 L0 4.1425 L0 0 L0.8653 0 L2.8975 2.667 L2.8975 0 Z" transform="translate(83.4941, 15.1475)"/>
   <path style="fill:#ffffff; fill-rule:nonzero;stroke:none;" d="M2.0977 0.7998 L2.0977 4.1425 L1.1729 4.1425 L1.1729 0.7998 L0 0.7998 L0 0 L3.2705 0 L3.2705 0.7998 L2.0977 0.7998 Z" transform="translate(88.5371, 15.1475)"/>
   <path style="fill:#ffffff; fill-rule:nonzero;stroke:none;" d="M0 0 L0.9248 0 L0.9248 4.1425 L0 4.1425 L0 0 Z" transform="translate(93.0283, 15.1475)"/>
   <path style="fill:#ffffff; fill-rule:nonzero;stroke:none;" d="M3.4072 2.1426 C3.4072 1.7725 3.289 1.458 3.0517 1.1973 C2.8154 0.9366 2.5234 0.8057 2.1777 0.8057 C1.832 0.8057 1.541 0.9366 1.3037 1.1973 C1.0664 1.458 0.9482 1.7725 0.9482 2.1426 C0.9482 2.5118 1.0664 2.8262 1.3037 3.084 C1.541 3.3428 1.832 3.4727 2.1777 3.4727 C2.5234 3.4727 2.8154 3.3428 3.0517 3.084 C3.289 2.8262 3.4072 2.5118 3.4072 2.1426 Z M3.7217 3.6651 C3.3027 4.0743 2.7871 4.2784 2.1748 4.2784 C1.5625 4.2784 1.0468 4.0743 0.6289 3.6651 C0.209 3.2559 0 2.7481 0 2.1397 C0 1.5313 0.209 1.0225 0.6289 0.6133 C1.0468 0.2041 1.5625 0 2.1748 0 C2.7871 0 3.3027 0.2041 3.7217 0.6133 C4.1406 1.0225 4.3496 1.5313 4.3496 2.1397 C4.3496 2.7481 4.1406 3.2559 3.7217 3.6651 Z" transform="translate(95.2803, 15.0527)"/>
   <path style="fill:#ffffff; fill-rule:nonzero;stroke:none;" d="M2.898 0 L3.823 0 L3.823 4.1425 L2.898 4.1425 L0.925 1.5468 L0.925 4.1425 L0 4.1425 L0 0 L0.866 0 L2.898 2.667 L2.898 0 Z" transform="translate(100.957, 15.1475)"/>
   <path style="fill:#ffffff; fill-rule:nonzero;stroke:none;" d="M2.24 1.2324 L1.719 2.4355 L2.756 2.4355 L2.24 1.2324 Z M3.49 4.1425 L3.105 3.247 L1.369 3.247 L0.984 4.1425 L0 4.1425 L1.79 0 L2.684 0 L4.474 4.1425 L3.49 4.1425 Z" transform="translate(107.914, 15.1475)"/>
   <path style="fill:#ffffff; fill-rule:nonzero;stroke:none;" d="M0 4.1425 L0 0 L0.925 0 L0.925 3.3183 L2.69 3.3183 L2.69 4.1425 L0 4.1425 Z" transform="translate(113.413, 15.1475)"/>
   <path style="fill:#ffffff; fill-rule:nonzero;stroke:none;" d="M2.175 2 C2.286 1.8759 2.341 1.6943 2.341 1.455 C2.341 1.2158 2.269 1.0459 2.125 0.9453 C1.981 0.8447 1.756 0.7939 1.452 0.7939 L0.924 0.7939 L0.924 2.1865 L1.547 2.1865 C1.855 2.1865 2.065 2.125 2.175 2 Z M2.854 0.3701 C3.144 0.6171 3.289 0.997 3.289 1.5078 C3.289 2.0195 3.14 2.3945 2.842 2.6308 C2.544 2.8681 2.088 2.9863 1.476 2.9863 L0.924 2.9863 L0.924 4.1425 L0 4.1425 L0 0 L1.464 0 C2.1 0 2.563 0.124 2.854 0.3701 Z" transform="translate(117.324, 15.1475)"/>
   <path style="fill:#ffffff; fill-rule:nonzero;stroke:none;" d="M0 0 L0.924 0 L0.924 4.1425 L0 4.1425 L0 0 Z" transform="translate(121.881, 15.1475)"/>
   <path style="fill:#ffffff; fill-rule:nonzero;stroke:none;" d="M2.898 0 L3.822 0 L3.822 4.1425 L2.898 4.1425 L0.924 1.5468 L0.924 4.1425 L0 4.1425 L0 0 L0.865 0 L2.898 2.667 L2.898 0 Z" transform="translate(124.37, 15.1475)"/>
   <path style="fill:#ffffff; fill-rule:nonzero;stroke:none;" d="M2.987 0 L2.987 0.8242 L0.924 0.8242 L0.924 1.6767 L2.78 1.6767 L2.78 2.4648 L0.924 2.4648 L0.924 3.3242 L3.052 3.3242 L3.052 4.1425 L0 4.1425 L0 0 L2.987 0 Z" transform="translate(129.756, 15.1475)"/>
   <path style="fill:#ffffff; fill-rule:nonzero;stroke:none;" d="M2.2402 1.2324 L1.7187 2.4355 L2.7558 2.4355 L2.2402 1.2324 Z M3.4902 4.1425 L3.1055 3.247 L1.3691 3.247 L0.9834 4.1425 L0 4.1425 L1.79 0 L2.6846 0 L4.4736 4.1425 L3.4902 4.1425 Z" transform="translate(63.0215, 21.0479)"/>
   <path style="fill:#ffffff; fill-rule:nonzero;stroke:none;" d="M0 4.1425 L0 0 L0.9239 0 L0.9239 3.3183 L2.6905 3.3183 L2.6905 4.1425 L0 4.1425 Z" transform="translate(68.6865, 21.0479)"/>
   <path style="fill:#ffffff; fill-rule:nonzero;stroke:none;" d="M2.1748 2 C2.2851 1.8759 2.3398 1.6943 2.3398 1.455 C2.3398 1.2158 2.2685 1.0459 2.124 0.9453 C1.9795 0.8447 1.7558 0.7939 1.4511 0.7939 L0.9238 0.7939 L0.9238 2.1865 L1.5468 2.1865 C1.8545 2.1865 2.0634 2.125 2.1748 2 Z M2.8525 0.3701 C3.1435 0.6171 3.289 0.997 3.289 1.5078 C3.289 2.0195 3.1396 2.3945 2.8408 2.6308 C2.5429 2.8681 2.0879 2.9863 1.4756 2.9863 L0.9238 2.9863 L0.9238 4.1425 L0 4.1425 L0 0 L1.4638 0 C2.0996 0 2.5625 0.124 2.8525 0.3701 Z" transform="translate(72.7637, 21.0479)"/>
   <path style="fill:#ffffff; fill-rule:nonzero;stroke:none;" d="M1.2656 0.9219 C1.1767 0.9951 1.1318 1.0918 1.1318 1.2119 C1.1318 1.3321 1.1865 1.4278 1.2949 1.499 C1.4033 1.5703 1.6543 1.6543 2.0478 1.751 C2.4404 1.8477 2.746 1.9932 2.9628 2.1865 C3.1806 2.3799 3.289 2.6631 3.289 3.0342 C3.289 3.4053 3.1494 3.7071 2.871 3.9375 C2.5927 4.169 2.2265 4.2842 1.7724 4.2842 C1.1162 4.2842 0.5253 4.041 0 3.5557 L0.5507 2.8799 C0.998 3.2715 1.4101 3.4668 1.79 3.4668 C1.9599 3.4668 2.0927 3.4297 2.1904 3.3565 C2.2861 3.2842 2.3349 3.1856 2.3349 3.0606 C2.3349 2.9365 2.2832 2.8379 2.1806 2.7647 C2.0781 2.6914 1.875 2.6172 1.5703 2.542 C1.0888 2.4278 0.7363 2.2783 0.5126 2.0948 C0.29 1.9112 0.1777 1.6231 0.1777 1.2295 C0.1777 0.8369 0.3193 0.5332 0.6015 0.3203 C0.8837 0.1065 1.2363 0 1.6591 0 C1.9365 0 2.2128 0.0479 2.4892 0.1426 C2.7656 0.2373 3.0068 0.3711 3.2119 0.5449 L2.7441 1.2207 C2.3847 0.9483 2.0126 0.8115 1.6298 0.8115 C1.4755 0.8115 1.3544 0.8487 1.2656 0.9219 Z" transform="translate(77.1895, 20.9531)"/>
   <path style="fill:#ffffff; fill-rule:nonzero;stroke:none;" d="M0 0 L0.9248 0 L0.9248 1.7011 L2.4893 0 L3.6329 0 L1.9854 1.831 C2.128 2.0283 2.3907 2.3974 2.7735 2.9365 C3.1573 3.4755 3.4434 3.8779 3.6329 4.1425 L2.5547 4.1425 L1.3399 2.5068 L0.9248 2.9687 L0.9248 4.1425 L0 4.1425 L0 0 Z" transform="translate(81.9775, 21.0479)"/>
   <path style="fill:#ffffff; fill-rule:nonzero;stroke:none;" d="M2.2393 1.2324 L1.7188 2.4355 L2.7559 2.4355 L2.2393 1.2324 Z M3.4903 4.1425 L3.1055 3.247 L1.3692 3.247 L0.9834 4.1425 L0 4.1425 L1.7891 0 L2.6846 0 L4.4737 4.1425 L3.4903 4.1425 Z" transform="translate(86.3574, 21.0479)"/>
   <path style="fill:#ffffff; fill-rule:nonzero;stroke:none;" d="M0 0 L0.9238 0 L0.9238 1.7011 L2.4882 0 L3.6318 0 L1.9853 1.831 C2.1269 2.0283 2.3896 2.3974 2.7734 2.9365 C3.1562 3.4755 3.4423 3.8779 3.6318 4.1425 L2.5537 4.1425 L1.3388 2.5068 L0.9238 2.9687 L0.9238 4.1425 L0 4.1425 L0 0 Z" transform="translate(94.2979, 21.0479)"/>
   <path style="fill:#ffffff; fill-rule:nonzero;stroke:none;" d="M3.4074 2.1426 C3.4074 1.7725 3.2894 1.458 3.0524 1.1973 C2.8154 0.9365 2.5234 0.8057 2.1784 0.8057 C1.8324 0.8057 1.5414 0.9365 1.3044 1.1973 C1.0674 1.458 0.9483 1.7725 0.9483 2.1426 C0.9483 2.5117 1.0674 2.8262 1.3044 3.084 C1.5414 3.3428 1.8324 3.4727 2.1784 3.4727 C2.5234 3.4727 2.8154 3.3428 3.0524 3.084 C3.2894 2.8262 3.4074 2.5117 3.4074 2.1426 Z M3.7224 3.6651 C3.3034 4.0742 2.7874 4.2783 2.1754 4.2783 C1.5624 4.2783 1.0469 4.0742 0.6289 3.6651 C0.21 3.2559 0 2.7481 0 2.1397 C0 1.5313 0.21 1.0225 0.6289 0.6133 C1.0469 0.2041 1.5624 0 2.1754 0 C2.7874 0 3.3034 0.2041 3.7224 0.6133 C4.1404 1.0225 4.3504 1.5313 4.3504 2.1397 C4.3504 2.7481 4.1404 3.2559 3.7224 3.6651 Z" transform="translate(98.7656, 20.9531)"/>
   <path style="fill:#ffffff; fill-rule:nonzero;stroke:none;" d="M2.898 0 L3.822 0 L3.822 4.1425 L2.898 4.1425 L0.924 1.5468 L0.924 4.1425 L0 4.1425 L0 0 L0.865 0 L2.898 2.6669 L2.898 0 Z" transform="translate(104.609, 21.0479)"/>
   <path style="fill:#ffffff; fill-rule:nonzero;stroke:none;" d="M2.056 2.6367 L3.111 0 L4.112 0 L2.447 4.1425 L1.665 4.1425 L0 0 L1.002 0 L2.056 2.6367 Z" transform="translate(109.634, 21.0479)"/>
   <path style="fill:#ffffff; fill-rule:nonzero;stroke:none;" d="M2.986 0 L2.986 0.8242 L0.924 0.8242 L0.924 1.6767 L2.779 1.6767 L2.779 2.4648 L0.924 2.4648 L0.924 3.3242 L3.051 3.3242 L3.051 4.1425 L0 4.1425 L0 0 L2.986 0 Z" transform="translate(114.95, 21.0479)"/>
   <path style="fill:#ffffff; fill-rule:nonzero;stroke:none;" d="M2.898 0 L3.822 0 L3.822 4.1425 L2.898 4.1425 L0.924 1.5468 L0.924 4.1425 L0 4.1425 L0 0 L0.865 0 L2.898 2.6669 L2.898 0 Z" transform="translate(119.536, 21.0479)"/>
   <path style="fill:#ffffff; fill-rule:nonzero;stroke:none;" d="M2.151 3.419 C2.605 3.419 2.976 3.2393 3.264 2.8799 L3.857 3.4903 C3.387 4.0196 2.833 4.2842 2.195 4.2842 C1.557 4.2842 1.031 4.083 0.619 3.6797 C0.206 3.2774 0 2.7686 0 2.1543 C0 1.5401 0.21 1.0274 0.631 0.6162 C1.051 0.2051 1.566 0 2.174 0 C2.854 0 3.423 0.2588 3.881 0.7764 L3.306 1.4278 C3.014 1.0645 2.651 0.8828 2.215 0.8828 C1.868 0.8828 1.571 0.9961 1.324 1.2237 C1.077 1.4512 0.953 1.7569 0.953 2.1426 C0.953 2.5274 1.07 2.8369 1.303 3.0694 C1.536 3.3028 1.819 3.419 2.151 3.419 Z" transform="translate(124.84, 20.9531)"/>
   <path style="fill:#ffffff; fill-rule:nonzero;stroke:none;" d="M0 0 L0.924 0 L0.924 4.1425 L0 4.1425 L0 0 Z" transform="translate(130.138, 21.0479)"/>
   <path style="fill:#ffffff; fill-rule:nonzero;stroke:none;" d="M0.51 0.7939 L0.51 0 L2.667 0 L2.667 2.7021 C2.667 3.1962 2.539 3.5654 2.285 3.8105 C2.03 4.0556 1.703 4.1777 1.304 4.1777 C0.806 4.1777 0.372 3.9863 0 3.6025 L0.481 2.9394 C0.729 3.208 0.99 3.3417 1.263 3.3417 C1.393 3.3417 1.505 3.2919 1.598 3.1914 C1.69 3.0908 1.737 2.9394 1.737 2.7373 L1.737 0.7939 L0.51 0.7939 Z" transform="translate(132.436, 21.0479)"/>
   <path style="fill:#ffffff; fill-rule:nonzero;stroke:none;" d="M2.24 1.2324 L1.718 2.4355 L2.755 2.4355 L2.24 1.2324 Z M3.49 4.1425 L3.105 3.247 L1.369 3.247 L0.983 4.1425 L0 4.1425 L1.79 0 L2.684 0 L4.474 4.1425 L3.49 4.1425 Z" transform="translate(136.2, 21.0479)"/>
  </g>
 </g>
</svg>
